<?xml version="1.0" encoding="UTF-8"?>
<svg id="Layer_1" xmlns="http://www.w3.org/2000/svg" version="1.1" viewBox="0 0 138 44">
  <!-- Generator: Adobe Illustrator 29.3.1, SVG Export Plug-In . SVG Version: 2.1.0 Build 151)  -->
  <defs>
    <style>
      .st0 {
        fill: #656565;
      }

      .st1 {
        fill: #b6b7bf;
      }

      .st2 {
        fill: #007bb6;
      }
    </style>
  </defs>
  <path class="st1" d="M12.1,36.8l1.4-1-6.1-15.7s-.8-.6-1.3.9-2.1,5.9-2.1,5.9l8.1,10h0Z"/>
  <path class="st2" d="M14.5,35.5s.8-.3,1.3-.4l1.3-.3-1.8-31s-.4-.7-1.3.5-7.3,8.7-7.3,8.7c0,0,0,.3.5,2.1s7.3,20.3,7.3,20.3h0Z"/>
  <path class="st1" d="M17.7,34.8h2.1l5.7-17.4s.5-.7-1.1-1.6-6.7-4-6.7-4c0,0-.7-.3-.6,1s.6,21.9.6,21.9h0Z"/>
  <path class="st1" d="M20.8,35.1l1.1.4,4.9-5.3s.3-.4-.2-1.8-1.4-4.2-1.4-4.2c0,0-.4-.7-.7.2s-3.7,10.8-3.7,10.8h0Z"/>
  <g>
    <path class="st0" d="M47,17.9h-2.8c0-.6-.3-1.1-.6-1.6s-.6-.8-1.1-1.1c-.4-.3-.9-.6-1.4-.7-.5-.2-1.1-.2-1.6-.2-1,0-2,.3-2.8.8s-1.5,1.3-2,2.3c-.5,1-.7,2.3-.7,3.7s.2,2.7.7,3.7,1.1,1.8,2,2.3c.8.5,1.8.8,2.8.8s1.1,0,1.6-.2,1-.4,1.4-.7.8-.7,1.1-1.1.5-1,.6-1.5h2.8c0,.9-.4,1.7-.9,2.5-.4.7-1,1.4-1.6,1.9-.7.5-1.4,1-2.3,1.3s-1.8.4-2.8.4c-1.6,0-3-.4-4.2-1.1s-2.2-1.8-2.9-3.2c-.7-1.4-1.1-3.1-1.1-5s.4-3.6,1.1-5,1.7-2.5,2.9-3.2,2.6-1.1,4.2-1.1,1.9.1,2.7.4c.8.3,1.6.7,2.3,1.2s1.2,1.2,1.7,1.9c.4.8.7,1.6.9,2.6h0Z"/>
    <path class="st0" d="M66.1,21c0,1.9-.4,3.6-1.1,5s-1.7,2.5-2.9,3.2-2.6,1.1-4.2,1.1-3-.4-4.2-1.1-2.2-1.8-2.9-3.2c-.7-1.4-1.1-3.1-1.1-5s.4-3.6,1.1-5c.7-1.4,1.7-2.5,2.9-3.2s2.6-1.1,4.2-1.1,3,.4,4.2,1.1c1.2.7,2.2,1.8,2.9,3.2.7,1.4,1.1,3.1,1.1,5ZM63.4,21c0-1.5-.2-2.7-.7-3.7s-1.1-1.8-2-2.3-1.8-.8-2.8-.8-2,.3-2.8.8-1.5,1.3-1.9,2.3c-.5,1-.7,2.3-.7,3.7s.2,2.7.7,3.7,1.1,1.8,1.9,2.3,1.8.8,2.8.8,2-.3,2.8-.8,1.5-1.3,2-2.3.7-2.3.7-3.7Z"/>
    <path class="st0" d="M84.2,12v18.2h-2.5l-9.2-13.3h-.2v13.3h-2.7V12h2.5l9.3,13.4h.2v-13.4h2.7-.1Z"/>
    <path class="st0" d="M94,30.1h-5.9V12h6.1c1.8,0,3.3.4,4.6,1.1s2.3,1.8,2.9,3.1,1,3,1,4.9-.3,3.5-1,4.9-1.7,2.4-3,3.1-2.9,1.1-4.7,1.1h0ZM90.9,27.7h3c1.4,0,2.5-.3,3.5-.8.9-.5,1.6-1.3,2.1-2.3s.7-2.2.7-3.7-.2-2.6-.7-3.6-1.1-1.7-2-2.3c-.9-.5-2-.8-3.3-.8h-3.2v13.4h0Z"/>
    <path class="st0" d="M122,21c0,1.9-.4,3.6-1.1,5s-1.7,2.5-2.9,3.2c-1.2.7-2.6,1.1-4.2,1.1s-3-.4-4.2-1.1-2.2-1.8-2.9-3.2c-.7-1.4-1.1-3.1-1.1-5s.4-3.6,1.1-5,1.7-2.5,2.9-3.2c1.2-.7,2.6-1.1,4.2-1.1s3,.4,4.2,1.1c1.2.7,2.2,1.8,2.9,3.2.7,1.4,1.1,3.1,1.1,5ZM119.3,21c0-1.5-.2-2.7-.7-3.7-.5-1-1.1-1.8-2-2.3-.8-.5-1.8-.8-2.8-.8s-2,.3-2.8.8-1.5,1.3-1.9,2.3c-.4,1-.7,2.3-.7,3.7s.2,2.7.7,3.7,1.1,1.8,1.9,2.3,1.8.8,2.8.8,2-.3,2.8-.8,1.5-1.3,2-2.3.7-2.3.7-3.7Z"/>
    <path class="st0" d="M132,12v18.2h-2.8v-15.4h-.1l-4.3,2.8v-2.6l4.5-3h2.7Z"/>
  </g>
</svg>