<?xml version="1.0" encoding="UTF-8"?>
<svg id="Layer_1" xmlns="http://www.w3.org/2000/svg" version="1.1" viewBox="0 0 138 44">
  <!-- Generator: Adobe Illustrator 29.3.1, SVG Export Plug-In . SVG Version: 2.1.0 Build 151)  -->
  <defs>
    <style>
      .st0 {
        fill: #656565;
      }

      .st1 {
        fill: #b6b7bf;
      }

      .st2 {
        fill: #007bb6;
      }
    </style>
  </defs>
  <path class="st1" d="M10.6,38.3l1.4-1-6.1-15.7s-.8-.6-1.3.9-2.1,5.9-2.1,5.9l8.1,10h0Z"/>
  <path class="st2" d="M13,37s.8-.3,1.3-.4l1.3-.3-1.8-31s-.4-.7-1.3.5-7.3,8.7-7.3,8.7c0,0,0,.3.5,2.1s7.3,20.3,7.3,20.3h0Z"/>
  <path class="st1" d="M16.2,36.3h2.1l5.7-17.4s.5-.7-1.1-1.6-6.7-4-6.7-4c0,0-.7-.3-.6,1s.6,21.9.6,21.9h0Z"/>
  <path class="st1" d="M19.3,36.6l1.1.4,4.9-5.3s.3-.4-.2-1.8-1.4-4.2-1.4-4.2c0,0-.4-.7-.7.2s-3.7,10.8-3.7,10.8h0Z"/>
  <path class="st2" d="M133.9,10.8v13.7h-.1c0,.1-2.6.1-2.6.1h-.1v-11.8l-3,1.3v-2c.6,0,2.4-1.3,2.9-1.3h3Z"/>
  <g>
    <path class="st2" d="M31,30.7c.3,0,.7,0,1.3,0s1.1.2,1.4.4c.3.2.4.6.4,1.1s-.1.8-.4,1.1c-.3.4-.9.6-1.6.6s-.4,0-.5,0v2.1h-.7v-5.1ZM31.6,33.1c.1,0,.3,0,.5,0,.8,0,1.3-.4,1.3-1.1s-.5-1-1.2-1-.5,0-.6,0v2Z"/>
    <path class="st2" d="M36.6,30.7c.3,0,.8-.1,1.3-.1.7,0,1.2.1,1.5.4.3.2.4.6.4,1,0,.7-.4,1.1-1,1.3h0c.4.2.6.5.8,1.1.2.7.3,1.2.4,1.4h-.7c0-.1-.2-.6-.3-1.2-.2-.7-.4-1-1-1h-.6v2.2h-.7v-5.1ZM37.3,33h.7c.7,0,1.2-.4,1.2-1s-.5-.9-1.2-1c-.3,0-.5,0-.7,0v1.9Z"/>
    <path class="st2" d="M46.7,33.1c0,1.8-1.1,2.7-2.4,2.7s-2.3-1-2.3-2.6,1-2.7,2.4-2.7,2.3,1.1,2.3,2.6ZM42.7,33.2c0,1.1.6,2.1,1.6,2.1s1.6-1,1.6-2.1-.5-2.1-1.6-2.1-1.6,1-1.6,2.1Z"/>
    <path class="st2" d="M49.2,30.7c.3,0,.7,0,1.3,0s1.1.2,1.4.4c.3.2.4.6.4,1.1s-.1.8-.4,1.1c-.3.4-.9.6-1.6.6s-.4,0-.5,0v2.1h-.7v-5.1ZM49.8,33.1c.1,0,.3,0,.5,0,.8,0,1.3-.4,1.3-1.1s-.5-1-1.2-1-.5,0-.6,0v2Z"/>
    <path class="st2" d="M57.5,33.3h-2v1.8h2.2v.6h-2.9v-5.1h2.8v.6h-2.1v1.6h2v.5Z"/>
    <path class="st2" d="M60.2,30.7c.3,0,.8-.1,1.3-.1.7,0,1.2.1,1.5.4.3.2.4.6.4,1,0,.7-.4,1.1-1,1.3h0c.4.2.6.5.8,1.1.2.7.3,1.2.4,1.4h-.7c0-.1-.2-.6-.3-1.2-.2-.7-.4-1-1-1h-.6v2.2h-.7v-5.1ZM60.8,33h.7c.7,0,1.2-.4,1.2-1s-.5-.9-1.2-1c-.3,0-.5,0-.7,0v1.9Z"/>
    <path class="st2" d="M66.5,31.2h-1.6v-.6h3.8v.6h-1.6v4.6h-.7v-4.6Z"/>
    <path class="st2" d="M71.8,35.7v-2.2l-1.6-2.9h.8l.7,1.4c.2.4.3.7.5,1.1h0c.1-.3.3-.7.5-1.1l.7-1.4h.8l-1.7,2.9v2.2h-.7Z"/>
    <path class="st2" d="M82.3,33.5c0-.7,0-1.6,0-2.2h0c-.2.6-.4,1.2-.6,1.9l-.9,2.5h-.5l-.8-2.4c-.2-.7-.4-1.4-.6-2h0c0,.6,0,1.5,0,2.3v2.2h-.8l.4-5.1h.8l.9,2.5c.2.6.4,1.2.5,1.7h0c.1-.5.3-1.1.5-1.7l.9-2.5h.8l.3,5.1h-.6v-2.2Z"/>
    <path class="st2" d="M86.5,34.1l-.5,1.6h-.7l1.7-5.1h.8l1.7,5.1h-.7l-.5-1.6h-1.8ZM88.2,33.6l-.5-1.5c-.1-.3-.2-.6-.3-.9h0c0,.3-.2.6-.3.9l-.5,1.5h1.5Z"/>
    <path class="st2" d="M91.9,35.7v-5.1h.7l1.6,2.6c.4.6.7,1.1.9,1.7h0c0-.7,0-1.3,0-2.1v-2.1h.6v5.1h-.7l-1.6-2.6c-.4-.6-.7-1.2-1-1.7h0c0,.7,0,1.3,0,2.1v2.2h-.6Z"/>
    <path class="st2" d="M99.4,34.1l-.5,1.6h-.7l1.7-5.1h.8l1.7,5.1h-.7l-.5-1.6h-1.8ZM101,33.6l-.5-1.5c-.1-.3-.2-.6-.3-.9h0c0,.3-.2.6-.3.9l-.5,1.5h1.5Z"/>
    <path class="st2" d="M108.7,35.5c-.3.1-.9.3-1.6.3s-1.4-.2-1.9-.7c-.4-.4-.7-1.1-.7-1.9,0-1.5,1.1-2.6,2.8-2.6s1.1.1,1.3.2l-.2.5c-.3-.1-.6-.2-1.1-.2-1.2,0-2.1.8-2.1,2.1s.8,2.1,2,2.1.7,0,.9-.1v-1.5h-1v-.5h1.7v2.5Z"/>
    <path class="st2" d="M115.6,33.5c0-.7,0-1.6,0-2.2h0c-.2.6-.4,1.2-.6,1.9l-.9,2.5h-.5l-.8-2.4c-.2-.7-.4-1.4-.6-2h0c0,.6,0,1.5,0,2.3v2.2h-.8l.4-5.1h.8l.9,2.5c.2.6.4,1.2.5,1.7h0c.1-.5.3-1.1.5-1.7l.9-2.5h.8l.3,5.1h-.6v-2.2Z"/>
    <path class="st2" d="M121.7,33.3h-2v1.8h2.2v.6h-2.9v-5.1h2.8v.6h-2.1v1.6h2v.5Z"/>
    <path class="st2" d="M124.4,35.7v-5.1h.7l1.6,2.6c.4.6.7,1.1.9,1.7h0c0-.7,0-1.3,0-2.1v-2.1h.6v5.1h-.7l-1.6-2.6c-.4-.6-.7-1.2-1-1.7h0c0,.7,0,1.3,0,2.1v2.2h-.6Z"/>
    <path class="st2" d="M131.7,31.2h-1.6v-.6h3.8v.6h-1.6v4.6h-.7v-4.6Z"/>
  </g>
  <g>
    <path class="st0" d="M40.9,15.9h-2.7c0-.4-.2-.8-.4-1.2-.2-.3-.5-.6-.8-.9-.3-.2-.6-.4-1-.5-.4-.1-.8-.2-1.2-.2-.8,0-1.5.2-2.1.6s-1.1,1-1.4,1.7-.5,1.7-.5,2.8.2,2,.5,2.8c.3.8.8,1.3,1.4,1.7.6.4,1.3.6,2.1.6s.8,0,1.2-.2c.4-.1.7-.3,1-.5.3-.2.6-.5.8-.8.2-.3.4-.7.4-1.1h2.7c0,.7-.3,1.4-.6,2-.3.6-.8,1.1-1.3,1.6s-1.2.8-1.9,1.1c-.7.3-1.5.4-2.4.4-1.3,0-2.4-.3-3.4-.9-1-.6-1.8-1.4-2.4-2.6-.6-1.1-.9-2.5-.9-4s.3-2.9.9-4c.6-1.1,1.4-2,2.4-2.6,1-.6,2.1-.9,3.4-.9s1.6.1,2.3.3c.7.2,1.3.6,1.9,1,.5.4,1,1,1.3,1.6.4.6.6,1.4.7,2.2Z"/>
    <path class="st0" d="M61.2,18.3c0,1.6-.3,2.9-.9,4-.6,1.1-1.4,2-2.4,2.6-1,.6-2.1.9-3.4.9s-2.4-.3-3.4-.9c-1-.6-1.8-1.4-2.4-2.6s-.9-2.5-.9-4,.3-2.9.9-4c.6-1.1,1.4-2,2.4-2.6,1-.6,2.1-.9,3.4-.9s2.4.3,3.4.9c1,.6,1.8,1.4,2.4,2.6.6,1.1.9,2.5.9,4ZM58.6,18.3c0-1.1-.2-2-.5-2.8-.3-.8-.8-1.3-1.4-1.7s-1.3-.6-2.1-.6-1.5.2-2.1.6-1.1,1-1.4,1.7c-.3.8-.5,1.7-.5,2.8s.2,2,.5,2.8.8,1.3,1.4,1.7c.6.4,1.3.6,2.1.6s1.5-.2,2.1-.6c.6-.4,1.1-1,1.4-1.7s.5-1.7.5-2.8Z"/>
    <path class="st0" d="M80.7,11v14.5h-2.3l-6.9-9.9h-.1v9.9h-2.6v-14.5h2.4l6.8,9.9h.1v-9.9h2.6Z"/>
    <path class="st0" d="M93.4,25.6h-4.9v-14.5h5c1.4,0,2.7.3,3.7.9,1,.6,1.8,1.4,2.4,2.5.6,1.1.8,2.4.8,3.9s-.3,2.8-.8,3.9c-.6,1.1-1.4,1.9-2.4,2.5-1.1.6-2.3.9-3.8.9ZM91.1,23.3h2.2c1,0,1.9-.2,2.5-.6.7-.4,1.2-.9,1.5-1.7.3-.7.5-1.7.5-2.8s-.2-2-.5-2.8c-.3-.7-.8-1.3-1.5-1.7-.7-.4-1.5-.6-2.5-.6h-2.2v10Z"/>
    <path class="st0" d="M120.9,18.3c0,1.6-.3,2.9-.9,4-.6,1.1-1.4,2-2.4,2.6-1,.6-2.1.9-3.4.9s-2.4-.3-3.4-.9c-1-.6-1.8-1.4-2.4-2.6s-.9-2.5-.9-4,.3-2.9.9-4c.6-1.1,1.4-2,2.4-2.6,1-.6,2.1-.9,3.4-.9s2.4.3,3.4.9c1,.6,1.8,1.4,2.4,2.6.6,1.1.9,2.5.9,4ZM118.3,18.3c0-1.1-.2-2-.5-2.8-.3-.8-.8-1.3-1.4-1.7s-1.3-.6-2.1-.6-1.5.2-2.1.6-1.1,1-1.4,1.7c-.3.8-.5,1.7-.5,2.8s.2,2,.5,2.8c.3.8.8,1.3,1.4,1.7.6.4,1.3.6,2.1.6s1.5-.2,2.1-.6c.6-.4,1.1-1,1.4-1.7.3-.8.5-1.7.5-2.8Z"/>
  </g>
</svg>